<svg width="20" height="20" viewBox="0 0 20 20" fill="none" xmlns="http://www.w3.org/2000/svg">
    <g clip-path="url(#clip0_316_1742)">
        <path d="M9.18084 2.34537C9.21654 2.1542 9.31798 1.98155 9.46758 1.8573C9.61719 1.73305 9.80553 1.66504 10 1.66504C10.1945 1.66504 10.3828 1.73305 10.5324 1.8573C10.682 1.98155 10.7835 2.1542 10.8192 2.34537L11.695 6.97703C11.7572 7.30632 11.9172 7.60922 12.1542 7.84618C12.3912 8.08314 12.694 8.24316 13.0233 8.30537L17.655 9.1812C17.8462 9.21691 18.0188 9.31835 18.1431 9.46795C18.2673 9.61755 18.3353 9.8059 18.3353 10.0004C18.3353 10.1948 18.2673 10.3832 18.1431 10.5328C18.0188 10.6824 17.8462 10.7838 17.655 10.8195L13.0233 11.6954C12.694 11.7576 12.3912 11.9176 12.1542 12.1546C11.9172 12.3915 11.7572 12.6944 11.695 13.0237L10.8192 17.6554C10.7835 17.8465 10.682 18.0192 10.5324 18.1434C10.3828 18.2677 10.1945 18.3357 10 18.3357C9.80553 18.3357 9.61719 18.2677 9.46758 18.1434C9.31798 18.0192 9.21654 17.8465 9.18084 17.6554L8.305 13.0237C8.2428 12.6944 8.08277 12.3915 7.84581 12.1546C7.60885 11.9176 7.30596 11.7576 6.97667 11.6954L2.345 10.8195C2.15384 10.7838 1.98118 10.6824 1.85693 10.5328C1.73269 10.3832 1.66467 10.1948 1.66467 10.0004C1.66467 9.8059 1.73269 9.61755 1.85693 9.46795C1.98118 9.31835 2.15384 9.21691 2.345 9.1812L6.97667 8.30537C7.30596 8.24316 7.60885 8.08314 7.84581 7.84618C8.08277 7.60922 8.2428 7.30632 8.305 6.97703L9.18084 2.34537Z" stroke="#D1D5DC" stroke-width="1.66667" stroke-linecap="round" stroke-linejoin="round"/>
        <path d="M16.6666 1.66699V5.00033" stroke="#D1D5DC" stroke-width="1.66667" stroke-linecap="round" stroke-linejoin="round"/>
        <path d="M18.3333 3.33301H15" stroke="#D1D5DC" stroke-width="1.66667" stroke-linecap="round" stroke-linejoin="round"/>
        <path d="M3.33329 18.3333C4.25377 18.3333 4.99996 17.5871 4.99996 16.6667C4.99996 15.7462 4.25377 15 3.33329 15C2.41282 15 1.66663 15.7462 1.66663 16.6667C1.66663 17.5871 2.41282 18.3333 3.33329 18.3333Z" stroke="#D1D5DC" stroke-width="1.66667" stroke-linecap="round" stroke-linejoin="round"/>
    </g>
    <defs>
        <clipPath id="clip0_316_1742">
            <rect width="20" height="20" fill="white"/>
        </clipPath>
    </defs>
</svg>
