<svg width="20" height="20" viewBox="0 0 20 20" fill="none" xmlns="http://www.w3.org/2000/svg">
<path d="M14.2084 16.9C13.3917 17.6917 12.5001 17.5667 11.6417 17.1917C10.7334 16.8083 9.90005 16.7917 8.94172 17.1917C7.74172 17.7083 7.10839 17.5583 6.39172 16.9C2.32506 12.7083 2.92506 6.325 7.54172 6.09167C8.66672 6.15 9.45006 6.70833 10.1084 6.70833C10.7667 6.70833 12.2501 5.95833 13.3334 6.08333C13.7667 6.10833 14.9667 6.25 15.7501 7.36667C13.6334 8.65 13.9751 11.9333 16.2084 12.9C15.7751 14.1333 15.1334 15.35 14.2084 16.9ZM10.0251 6.04167C9.90005 4.18333 11.4084 2.65 13.1417 2.5C13.2917 4.38333 11.4834 6.09167 10.0251 6.04167Z" fill="white"/>
</svg>
