<svg width="64" height="64" viewBox="0 0 64 64" fill="none" xmlns="http://www.w3.org/2000/svg">
<path d="M40 5.33301H16C14.5855 5.33301 13.2289 5.89491 12.2287 6.8951C11.2285 7.8953 10.6666 9.25185 10.6666 10.6663V53.333C10.6666 54.7475 11.2285 56.104 12.2287 57.1042C13.2289 58.1044 14.5855 58.6663 16 58.6663H48C49.4144 58.6663 50.771 58.1044 51.7712 57.1042C52.7714 56.104 53.3333 54.7475 53.3333 53.333V18.6663L40 5.33301Z" stroke="#99A1AF" stroke-width="5.33333" stroke-linecap="round" stroke-linejoin="round"/>
<path d="M37.3334 5.33301V15.9997C37.3334 17.4142 37.8953 18.7707 38.8955 19.7709C39.8957 20.7711 41.2522 21.333 42.6667 21.333H53.3334" stroke="#99A1AF" stroke-width="5.33333" stroke-linecap="round" stroke-linejoin="round"/>
<path d="M26.6667 24H21.3334" stroke="#99A1AF" stroke-width="5.33333" stroke-linecap="round" stroke-linejoin="round"/>
<path d="M42.6667 34.667H21.3334" stroke="#99A1AF" stroke-width="5.33333" stroke-linecap="round" stroke-linejoin="round"/>
<path d="M42.6667 45.333H21.3334" stroke="#99A1AF" stroke-width="5.33333" stroke-linecap="round" stroke-linejoin="round"/>
</svg>
