<svg width="15" height="15" viewBox="0 0 15 15" fill="none" xmlns="http://www.w3.org/2000/svg">
<path d="M7.01795 0.863588C7.04716 0.804562 7.09229 0.754876 7.14825 0.720138C7.2042 0.6854 7.26875 0.666992 7.33461 0.666992C7.40047 0.666992 7.46502 0.6854 7.52098 0.720138C7.57693 0.754876 7.62207 0.804562 7.65128 0.863588L9.19128 3.98292C9.29273 4.18823 9.44249 4.36586 9.6277 4.50056C9.81291 4.63525 10.028 4.723 10.2546 4.75625L13.6986 5.26025C13.7639 5.26971 13.8252 5.29724 13.8756 5.33972C13.926 5.38221 13.9636 5.43795 13.984 5.50066C14.0044 5.56336 14.0068 5.63053 13.991 5.69455C13.9752 5.75857 13.9418 5.81689 13.8946 5.86292L11.4039 8.28826C11.2397 8.44832 11.1168 8.64591 11.0458 8.86401C10.9749 9.08211 10.958 9.31418 10.9966 9.54026L11.5846 12.9669C11.5961 13.0321 11.5891 13.0993 11.5643 13.1607C11.5395 13.2221 11.4979 13.2753 11.4443 13.3143C11.3907 13.3532 11.3273 13.3763 11.2612 13.3809C11.1951 13.3854 11.1291 13.3714 11.0706 13.3403L7.99195 11.7216C7.78909 11.6151 7.5634 11.5594 7.33428 11.5594C7.10516 11.5594 6.87947 11.6151 6.67661 11.7216L3.59861 13.3403C3.54017 13.3712 3.47421 13.3851 3.40825 13.3804C3.34228 13.3757 3.27896 13.3526 3.22548 13.3137C3.172 13.2748 3.1305 13.2217 3.10572 13.1604C3.08093 13.0991 3.07385 13.0321 3.08528 12.9669L3.67261 9.54092C3.71141 9.31474 3.6946 9.08252 3.62364 8.86429C3.55268 8.64605 3.42969 8.44836 3.26528 8.28826L0.774615 5.86359C0.72701 5.81761 0.693277 5.75919 0.677256 5.69497C0.661236 5.63076 0.663572 5.56333 0.684 5.50038C0.704428 5.43743 0.742126 5.38148 0.792799 5.33891C0.843472 5.29634 0.905083 5.26885 0.970614 5.25959L4.41395 4.75625C4.64079 4.72325 4.85621 4.63563 5.04167 4.50091C5.22713 4.3662 5.37708 4.18844 5.47861 3.98292L7.01795 0.863588Z" fill="#F0B100" stroke="#F0B100" stroke-width="1.33333" stroke-linecap="round" stroke-linejoin="round"/>
</svg>
