<svg width="15" height="15" viewBox="0 0 15 15" fill="none" xmlns="http://www.w3.org/2000/svg">
<path d="M7.01783 0.863588C7.04704 0.804562 7.09217 0.754876 7.14813 0.720138C7.20408 0.6854 7.26863 0.666992 7.33449 0.666992C7.40035 0.666992 7.4649 0.6854 7.52086 0.720138C7.57681 0.754876 7.62194 0.804562 7.65116 0.863588L9.19116 3.98292C9.29261 4.18823 9.44237 4.36586 9.62758 4.50056C9.81278 4.63525 10.0279 4.723 10.2545 4.75625L13.6985 5.26025C13.7637 5.26971 13.8251 5.29724 13.8755 5.33972C13.9259 5.38221 13.9634 5.43795 13.9838 5.50066C14.0042 5.56336 14.0067 5.63053 13.9909 5.69455C13.9751 5.75857 13.9417 5.81689 13.8945 5.86292L11.4038 8.28826C11.2396 8.44832 11.1167 8.64591 11.0457 8.86401C10.9748 9.08211 10.9579 9.31418 10.9965 9.54026L11.5845 12.9669C11.596 13.0321 11.589 13.0993 11.5642 13.1607C11.5393 13.2221 11.4978 13.2753 11.4442 13.3143C11.3906 13.3532 11.3271 13.3763 11.2611 13.3809C11.195 13.3854 11.129 13.3714 11.0705 13.3403L7.99183 11.7216C7.78897 11.6151 7.56328 11.5594 7.33416 11.5594C7.10504 11.5594 6.87935 11.6151 6.67649 11.7216L3.59849 13.3403C3.54005 13.3712 3.47409 13.3851 3.40813 13.3804C3.34216 13.3757 3.27884 13.3526 3.22536 13.3137C3.17187 13.2748 3.13038 13.2217 3.1056 13.1604C3.08081 13.0991 3.07373 13.0321 3.08516 12.9669L3.67249 9.54092C3.71129 9.31474 3.69448 9.08252 3.62352 8.86429C3.55255 8.64605 3.42956 8.44836 3.26516 8.28826L0.774492 5.86359C0.726888 5.81761 0.693155 5.75919 0.677134 5.69497C0.661114 5.63076 0.66345 5.56333 0.683878 5.50038C0.704306 5.43743 0.742004 5.38148 0.792677 5.33891C0.84335 5.29634 0.904961 5.26885 0.970492 5.25959L4.41383 4.75625C4.64066 4.72325 4.85608 4.63563 5.04155 4.50091C5.22701 4.3662 5.37696 4.18844 5.47849 3.98292L7.01783 0.863588Z" stroke="#FAFAFA" stroke-width="1.33333" stroke-linecap="round" stroke-linejoin="round"/>
</svg>
