<svg width="80" height="80" viewBox="0 0 80 80" fill="none" xmlns="http://www.w3.org/2000/svg">
<path d="M0 40C0 17.9086 17.9086 0 40 0C62.0914 0 80 17.9086 80 40C80 62.0914 62.0914 80 40 80C17.9086 80 0 62.0914 0 40Z" fill="#0D542B"/>
<path d="M59.602 36C60.5153 40.4826 59.8644 45.1428 57.7577 49.2036C55.6509 53.2643 52.2157 56.4801 48.025 58.3146C43.8342 60.1491 39.1412 60.4915 34.7286 59.2847C30.3159 58.0779 26.4503 55.3948 23.7765 51.6828C21.1027 47.9709 19.7822 43.4545 20.0353 38.8868C20.2884 34.319 22.0997 29.9762 25.1673 26.5823C28.2348 23.1885 32.3731 20.9488 36.8921 20.2369C41.4111 19.5249 46.0375 20.3837 50 22.67" stroke="#05DF72" stroke-width="4" stroke-linecap="round" stroke-linejoin="round"/>
<path d="M34 38L40 44L60 24" stroke="#05DF72" stroke-width="4" stroke-linecap="round" stroke-linejoin="round"/>
</svg>
